<mxfile host="Electron" agent="Mozilla/5.0 (Windows NT 10.0; Win64; x64) AppleWebKit/537.36 (KHTML, like Gecko) draw.io/24.7.17 Chrome/128.0.6613.36 Electron/32.0.1 Safari/537.36" border="50" scale="3" compressed="false" locked="false" version="24.7.17">
  <diagram name="Blank" id="YmL12bMKpDGza6XwsDPr">
    <mxGraphModel dx="2362" dy="1309" grid="0" gridSize="10" guides="1" tooltips="1" connect="1" arrows="1" fold="1" page="0" pageScale="1" pageWidth="827" pageHeight="1169" background="none" math="1" shadow="0">
      <root>
        <mxCell id="X5NqExCQtvZxIxQ7pmgY-0" />
        <mxCell id="1" parent="X5NqExCQtvZxIxQ7pmgY-0" />
        <mxCell id="iWuvRn1QBdHZceRhZ_qn-16" value="" style="html=1;whiteSpace=wrap;shape=isoCube2;backgroundOutline=1;isoAngle=15;" parent="1" vertex="1">
          <mxGeometry x="510" y="160" width="143" height="159" as="geometry" />
        </mxCell>
        <mxCell id="iWuvRn1QBdHZceRhZ_qn-10" value="" style="edgeStyle=orthogonalEdgeStyle;rounded=0;orthogonalLoop=1;jettySize=auto;html=1;entryX=0.204;entryY=0.883;entryDx=0;entryDy=0;entryPerimeter=0;exitX=1;exitY=0.5;exitDx=0;exitDy=0;strokeColor=none;" parent="1" source="iWuvRn1QBdHZceRhZ_qn-25" target="iWuvRn1QBdHZceRhZ_qn-12" edge="1">
          <mxGeometry relative="1" as="geometry">
            <mxPoint x="111.2800000000002" y="326.26" as="targetPoint" />
          </mxGeometry>
        </mxCell>
        <mxCell id="iWuvRn1QBdHZceRhZ_qn-3" value="Der Druide" style="shape=umlActor;verticalLabelPosition=bottom;verticalAlign=top;html=1;fillColor=#60a917;fontColor=#ffffff;strokeColor=#2D7600;" parent="1" vertex="1">
          <mxGeometry x="-127" y="368" width="30" height="60" as="geometry" />
        </mxCell>
        <mxCell id="iWuvRn1QBdHZceRhZ_qn-4" value="" style="image;aspect=fixed;html=1;points=[];align=center;fontSize=12;image=img/lib/azure2/databases/Azure_Database_PostgreSQL_Server.svg;" parent="1" vertex="1">
          <mxGeometry x="633.13" y="341" width="39.75" height="53" as="geometry" />
        </mxCell>
        <mxCell id="iWuvRn1QBdHZceRhZ_qn-5" value="" style="dashed=0;outlineConnect=0;html=1;align=center;labelPosition=center;verticalLabelPosition=bottom;verticalAlign=top;shape=mxgraph.weblogos.java" parent="1" vertex="1">
          <mxGeometry x="-97" y="346" width="34.4" height="65" as="geometry" />
        </mxCell>
        <mxCell id="iWuvRn1QBdHZceRhZ_qn-8" value="" style="image;sketch=0;aspect=fixed;html=1;points=[];align=center;fontSize=12;image=img/lib/mscae/Docker.svg;rotation=25;" parent="1" vertex="1">
          <mxGeometry x="521" y="222" width="50" height="41" as="geometry" />
        </mxCell>
        <mxCell id="iWuvRn1QBdHZceRhZ_qn-22" value="" style="edgeStyle=orthogonalEdgeStyle;rounded=0;orthogonalLoop=1;jettySize=auto;html=1;entryX=0;entryY=0.5;entryDx=0;entryDy=0;entryPerimeter=0;" parent="1" source="iWuvRn1QBdHZceRhZ_qn-12" target="iWuvRn1QBdHZceRhZ_qn-16" edge="1">
          <mxGeometry relative="1" as="geometry" />
        </mxCell>
        <mxCell id="iWuvRn1QBdHZceRhZ_qn-12" value="" style="html=1;whiteSpace=wrap;shape=isoCube2;backgroundOutline=1;isoAngle=15;" parent="1" vertex="1">
          <mxGeometry x="-170" y="-24" width="215" height="211" as="geometry" />
        </mxCell>
        <mxCell id="iWuvRn1QBdHZceRhZ_qn-13" value="Postgres JDBC" style="text;html=1;align=center;verticalAlign=middle;whiteSpace=wrap;rounded=0;rotation=-25;" parent="1" vertex="1">
          <mxGeometry x="-43" y="72" width="66" height="28" as="geometry" />
        </mxCell>
        <mxCell id="iWuvRn1QBdHZceRhZ_qn-17" value="" style="html=1;shape=mxgraph.basic.isocube;isoAngle=15;fillColor=none;" parent="1" vertex="1">
          <mxGeometry x="583" y="285" width="140" height="140" as="geometry" />
        </mxCell>
        <mxCell id="iWuvRn1QBdHZceRhZ_qn-21" value="" style="shape=waypoint;sketch=0;size=6;pointerEvents=1;points=[];fillColor=default;resizable=0;rotatable=0;perimeter=centerPerimeter;snapToPoint=1;" parent="1" vertex="1">
          <mxGeometry x="531" y="289" width="20" height="20" as="geometry" />
        </mxCell>
        <mxCell id="iWuvRn1QBdHZceRhZ_qn-23" value="" style="shape=waypoint;sketch=0;size=6;pointerEvents=1;points=[];fillColor=default;resizable=0;rotatable=0;perimeter=centerPerimeter;snapToPoint=1;" parent="1" vertex="1">
          <mxGeometry x="256" y="568" width="20" height="20" as="geometry" />
        </mxCell>
        <mxCell id="iWuvRn1QBdHZceRhZ_qn-25" value="" style="strokeColor=none;shadow=1;strokeWidth=1;rounded=1;absoluteArcSize=1;arcSize=2;fillColor=none;" parent="1" vertex="1">
          <mxGeometry x="-188" y="279.5" width="208" height="237" as="geometry" />
        </mxCell>
        <mxCell id="iWuvRn1QBdHZceRhZ_qn-27" value="" style="html=1;whiteSpace=wrap;shape=isoCube2;backgroundOutline=1;isoAngle=15;fillColor=none;" parent="iWuvRn1QBdHZceRhZ_qn-25" vertex="1">
          <mxGeometry x="-12" y="-31" width="190" height="268" as="geometry" />
        </mxCell>
        <mxCell id="iWuvRn1QBdHZceRhZ_qn-26" value="Maven&lt;div&gt;&lt;br&gt;&lt;/div&gt;" style="editableCssRules=.*;html=1;fontColor=#999999;shape=image;verticalLabelPosition=middle;verticalAlign=middle;labelPosition=right;align=left;spacingLeft=20;part=1;points=[];imageAspect=0;image=data:image/svg+xml,PHN2ZyB4bWxucz0iaHR0cDovL3d3dy53My5vcmcvMjAwMC9zdmciIHhtbG5zOnY9Imh0dHBzOi8vdmVjdGEuaW8vbmFubyIgd2lkdGg9IjQyNCIgaGVpZ2h0PSI0MjQiIHZpZXdCb3g9IjAgMCA0MjQgNDI0Ij4mI3hhOwk8c3R5bGUgdHlwZT0idGV4dC9jc3MiPiYjeGE7CS5zdDB7ZmlsbDojNDI4NWY0O30mI3hhOwk8L3N0eWxlPiYjeGE7CTxwYXRoIGNsYXNzPSJzdDAiIGQ9Ik00MjQgMHY0MjRIMFYwek0yMTIgOTcuODQ2Yy0zNy44ODQgMC03MC4xNjQgMjMuOTktODIuNDc4IDU3LjYwOGgwbC0zLjQwMy4wMDFjLTQyLjYzNCAwLTc3LjE5NiAzNC41NjItNzcuMTk2IDc3LjE5NnMzNC41NjIgNzcuMTk2IDc3LjE5NiA3Ny4xOTZoMCAxNzEuNzYzYzQyLjYzNCAwIDc3LjE5Ni0zNC41NjIgNzcuMTk2LTc3LjE5NnMtMzQuNTYyLTc3LjE5Ni03Ny4xOTYtNzcuMTk2aDBsLTMuNDAzLS4wMDFDMjgyLjE2NCAxMjEuODM3IDI0OS44ODQgOTcuODQ2IDIxMiA5Ny44NDZ6IiBmaWxsLXJ1bGU9ImV2ZW5vZGQiLz4mI3hhOzwvc3ZnPg==;rotation=-30;" parent="iWuvRn1QBdHZceRhZ_qn-25" vertex="1">
          <mxGeometry width="30" height="30" relative="1" as="geometry">
            <mxPoint x="15" y="15" as="offset" />
          </mxGeometry>
        </mxCell>
        <mxCell id="iWuvRn1QBdHZceRhZ_qn-33" value="Use" style="endArrow=open;endSize=12;dashed=1;html=1;rounded=0;exitX=0.275;exitY=0.08;exitDx=0;exitDy=0;exitPerimeter=0;entryX=0.235;entryY=0.874;entryDx=0;entryDy=0;entryPerimeter=0;" parent="1" source="iWuvRn1QBdHZceRhZ_qn-27" target="iWuvRn1QBdHZceRhZ_qn-12" edge="1">
          <mxGeometry width="160" relative="1" as="geometry">
            <mxPoint x="356" y="484" as="sourcePoint" />
            <mxPoint x="-120.13340618695383" y="156" as="targetPoint" />
          </mxGeometry>
        </mxCell>
        <mxCell id="iWuvRn1QBdHZceRhZ_qn-37" value="" style="edgeStyle=orthogonalEdgeStyle;rounded=0;orthogonalLoop=1;jettySize=auto;html=1;" parent="1" source="iWuvRn1QBdHZceRhZ_qn-36" edge="1">
          <mxGeometry relative="1" as="geometry">
            <mxPoint x="-140" y="219" as="targetPoint" />
          </mxGeometry>
        </mxCell>
        <mxCell id="iWuvRn1QBdHZceRhZ_qn-36" value="&lt;div style=&quot;text-align: left; font-size: 11px;&quot;&gt;&lt;div&gt;&amp;lt;dependencies&amp;gt;&lt;/div&gt;&lt;div&gt;&amp;nbsp; &amp;nbsp; &amp;lt;dependency&amp;gt;&lt;/div&gt;&lt;div&gt;&amp;nbsp; &amp;nbsp; &amp;nbsp; &amp;nbsp; &amp;lt;groupId&amp;gt;org.postgresql&amp;lt;/groupId&amp;gt;&lt;/div&gt;&lt;div&gt;&amp;nbsp; &amp;nbsp; &amp;nbsp; &amp;nbsp; &amp;lt;artifactId&amp;gt;postgresql&amp;lt;/artifactId&amp;gt;&lt;/div&gt;&lt;div&gt;&amp;nbsp; &amp;nbsp; &amp;nbsp; &amp;nbsp; &amp;lt;version&amp;gt;42.7.4&amp;lt;/version&amp;gt;&lt;/div&gt;&lt;div&gt;&amp;nbsp; &amp;nbsp; &amp;lt;/dependency&amp;gt;&amp;nbsp; &amp;nbsp;&amp;nbsp;&lt;/div&gt;&lt;div&gt;&amp;lt;/dependencies&amp;gt;&lt;/div&gt;&lt;/div&gt;" style="text;html=1;align=center;verticalAlign=middle;whiteSpace=wrap;rounded=0;strokeColor=default;" parent="1" vertex="1">
          <mxGeometry x="-468" y="135" width="210" height="107" as="geometry" />
        </mxCell>
      </root>
    </mxGraphModel>
  </diagram>
</mxfile>
